<?xml version="1.0" encoding="UTF-8" standalone="no"?>
<svg width="580" height="580" version="1.0" xmlns="http://www.w3.org/2000/svg">
 <metadata id="metadata3003"/>
 <path id="path816" d="M 276,32 V 152.40039 H 87 c -14.8,0 -26.900391,11.80039 -26.900391,26.40039 v 283.00001 c 0,14.5 12.000391,26.5 26.900391,26.5 h 402 c 15,0.1 27,-10.9004 27,-25.9004 v -283 C 516,164.90039 503.99961,153 489.09961,153 L 489,152.40039 H 300 V 32 Z" opacity="0.8" fill="none" stroke="#ffffff" vector-effect="none" stroke-linejoin="round" stroke-width="64"/>
 <path d="M 276,32 V 152.40039 H 87 c -14.8,0 -26.900391,11.80039 -26.900391,26.40039 v 283.00001 c 0,14.5 12.000391,26.5 26.900391,26.5 h 402 c 15,0.1 27,-10.9004 27,-25.9004 v -283 C 516,164.90039 503.99961,153 489.09961,153 L 489,152.40039 H 300 V 32 Z" id="path3760" fill="#20a0a0"/>
 <path d="m 84,204.40039 v 89 c 0,8 7,15 16,15 h 89 c 8,0 15,-7 15,-15 v -89 c 0,-9 -7,-16 -15,-16 h -89 c -9,0 -16,7 -16,16 z m 144,0 v 89 c 0,9 7,16 16,15 h 89 c 8,0 15,-7 15,-15 v -89 c 0,-9 -7,-16 -16,-16 h -89 c -8,0 -15,7 -15,16 z m 144,0 v 89 c 0,8 7,15 16,15 h 89 c 8,0 15,-7 15,-15 v -89 c 0,-9 -7,-16 -15,-16 h -89 c -9,0 -16,7 -16,16 z" id="path3758-6" opacity="0.7" fill="#ffffff"/>
</svg>
