<?xml version="1.0" encoding="UTF-8" standalone="no"?>
<svg version="1.0" width="580" height="580" xmlns="http://www.w3.org/2000/svg">
 <metadata id="metadata10"/>
 <path d="m 318.51149,136.48047 c -5.0143,6.7e-4 -9.07902,4.06539 -9.07969,9.07969 v 288.8 c 1.4e-4,4.16669 2.83513,7.79932 6.11719,8.47969 l 41.44219,0.67968 c 5.01429,-6.7e-4 9.07901,-4.06539 9.07968,-9.07968 V 325.91953 h 64.52032 c 42.29078,0 73.23504,-8.52076 90.78593,-27.83437 17.55091,-19.31361 26.29375,-42.67329 26.29375,-69.16563 0,-15.31697 -3.15846,-29.95224 -9.64375,-43.19062 -6.40383,-13.15195 -15.12405,-23.79761 -26.11093,-31.39688 -10.89612,-7.53647 -24.06213,-12.42729 -39.22656,-15 -11.10507,-1.90872 -25.9542,-2.85156 -45.37813,-2.85156 z m 47.64062,52.4 h 64.51875 c 16.92111,0 28.73343,1.08242 33.23907,2.25313 7.91133,2.20009 13.96983,6.43509 18.93593,13.49218 4.92624,7.00045 7.46563,15.34758 7.46563,25.81407 0,14.80447 -4.17858,24.66734 -12.43125,32.05156 -8.06486,6.9397 -23.35553,11.58906 -46.80938,11.58906 h -64.91875 z" id="path1225" opacity="0.8" fill="none" stroke="#ffffff" vector-effect="none" stroke-linejoin="round" stroke-width="64"/>
 <path id="path1227" d="m 161.64366,213.17688 a 21.42445,21.42445 0 0 0 -15.07422,6.45508 21.42445,21.42445 0 0 0 0.35937,30.29688 l 17.15039,16.74804 H 56.102639 a 21.42445,21.42445 0 0 0 -21.42383,21.42383 21.42445,21.42445 0 0 0 0.26367,2 21.42445,21.42445 0 0 0 -0.26367,2 21.42445,21.42445 0 0 0 21.42383,21.42578 H 164.0792 l -17.15039,16.74805 a 21.42445,21.42445 0 0 0 -0.35937,30.29492 21.42445,21.42445 0 0 0 30.29492,0.36133 l 54.79102,-53.5 a 21.426592,21.426592 0 0 0 6.30078,-17.32813 21.426592,21.426592 0 0 0 -6.30078,-17.33007 l -54.79102,-53.5 a 21.42445,21.42445 0 0 0 -9.66797,-5.43164 21.42445,21.42445 0 0 0 -5.55273,-0.66407 z" opacity="0.8" fill="none" stroke="#ffffff" vector-effect="none" stroke-linejoin="round" color="#000000" stroke-width="64"/>
 <path d="m 318.51149,136.48047 c -5.0143,6.7e-4 -9.07902,4.06539 -9.07969,9.07969 v 288.8 c 1.4e-4,4.16669 2.83513,7.79932 6.11719,8.47969 l 41.44219,0.67968 c 5.01429,-6.7e-4 9.07901,-4.06539 9.07968,-9.07968 V 325.91953 h 64.52032 c 42.29078,0 73.23504,-8.52076 90.78593,-27.83437 17.55091,-19.31361 26.29375,-42.67329 26.29375,-69.16563 0,-15.31697 -3.15846,-29.95224 -9.64375,-43.19062 -6.40383,-13.15195 -15.12405,-23.79761 -26.11093,-31.39688 -10.89612,-7.53647 -24.06213,-12.42729 -39.22656,-15 -11.10507,-1.90872 -25.9542,-2.85156 -45.37813,-2.85156 z m 47.64062,52.4 h 64.51875 c 16.92111,0 28.73343,1.08242 33.23907,2.25313 7.91133,2.20009 13.96983,6.43509 18.93593,13.49218 4.92624,7.00045 7.46563,15.34758 7.46563,25.81407 0,14.80447 -4.17858,24.66734 -12.43125,32.05156 -8.06486,6.9397 -23.35553,11.58906 -46.80938,11.58906 h -64.91875 z" id="path4136" fill="#20a0a0"/>
 <path id="path8395-0" d="m 161.64366,213.17688 a 21.42445,21.42445 0 0 0 -15.07422,6.45508 21.42445,21.42445 0 0 0 0.35937,30.29688 l 17.15039,16.74804 H 56.102639 a 21.42445,21.42445 0 0 0 -21.42383,21.42383 21.42445,21.42445 0 0 0 0.26367,2 21.42445,21.42445 0 0 0 -0.26367,2 21.42445,21.42445 0 0 0 21.42383,21.42578 H 164.0792 l -17.15039,16.74805 a 21.42445,21.42445 0 0 0 -0.35937,30.29492 21.42445,21.42445 0 0 0 30.29492,0.36133 l 54.79102,-53.5 a 21.426592,21.426592 0 0 0 6.30078,-17.32813 21.426592,21.426592 0 0 0 -6.30078,-17.33007 l -54.79102,-53.5 a 21.42445,21.42445 0 0 0 -9.66797,-5.43164 21.42445,21.42445 0 0 0 -5.55273,-0.66407 z" fill="#20a0a0" stroke-linejoin="round" stroke-linecap="round" color="#000000"/>
</svg>
