<?xml version="1.0" encoding="UTF-8" standalone="no"?>
<svg version="1.0" width="580" height="580" xmlns="http://www.w3.org/2000/svg">
 <metadata id="metadata10"/>
 <path d="m 243.82662,120.69633 c -4.2021,5.7e-4 -7.60843,3.40689 -7.60899,7.60899 v 242.02089 c 1.2e-4,3.49177 2.37591,6.536 5.12635,7.10616 l 34.72948,0.5696 c 4.20209,-5.6e-4 7.60841,-3.40689 7.60898,-7.60899 v -90.94246 h 54.06947 c 35.44064,0 61.37261,-7.14059 76.08066,-23.32583 14.70805,-16.18524 22.03476,-35.76118 22.03476,-57.96235 0,-12.83598 -2.64687,-25.10065 -8.08169,-36.19472 -5.36655,-11.02162 -12.67429,-19.94292 -21.88155,-26.31127 -9.13118,-6.31575 -20.1646,-10.41436 -32.87274,-12.57035 -9.30629,-1.59955 -21.7502,-2.38967 -38.02789,-2.38967 z m 39.92391,43.91237 h 54.06816 c 14.18027,0 24.07926,0.9071 27.85509,1.88817 6.62987,1.84373 11.70703,5.39275 15.86874,11.30675 4.1283,5.86654 6.25636,12.86162 6.25636,21.63278 0,12.40648 -3.50174,20.67178 -10.41767,26.85993 -6.75853,5.81562 -19.57246,9.71189 -39.2273,9.71189 h -54.40338 z" id="path190" opacity="0.8" fill="none" stroke="#ffffff" vector-effect="none" stroke-linejoin="round" stroke-width="64"/>
 <path d="m 452.23187,301.76747 c -49.57537,0 -89.76812,40.19275 -89.76812,89.76812 0,49.57537 40.19275,89.76808 89.76812,89.76808 49.57538,0 89.76813,-40.19271 89.76813,-89.76808 0,-49.57537 -40.19275,-89.76812 -89.76813,-89.76812 z m -3.76362,16.28721 h 1.50217 2.51819 1.01601 c 8.21603,0 8.21505,0.35475 8.25924,9.23337 0.0441,6.53749 0.0433,6.53679 6.53673,7.55275 4.99146,0.7951 9.7195,2.25245 14.31344,4.28438 2.51781,1.1043 3.4881,2.87173 2.693,5.56624 -1.14848,3.97551 -2.25187,7.99503 -3.48869,11.92636 -0.7951,2.38529 -1.54531,3.48868 -2.95883,3.48868 -0.7951,0 -1.76754,-0.30838 -3.00435,-0.9268 -6.36081,-3.09206 -13.03157,-4.59392 -20.01078,-4.59392 -0.88345,0 -1.81138,0.0433 -2.69481,0.0874 -2.07611,0.13251 -4.10699,0.39888 -6.05058,1.23815 -6.89087,3.00371 -7.99616,10.60167 -2.12125,15.28394 2.95954,2.3853 6.36101,4.06303 9.85062,5.52072 6.09577,2.51781 12.19218,4.94772 17.97875,8.12813 18.19896,10.15962 23.14632,33.26194 10.20385,48.98727 -4.68225,5.69821 -10.77778,9.54031 -17.88952,11.48389 -3.09205,0.83927 -4.50659,2.47457 -4.3299,5.69915 0.13252,3.18041 4e-4,6.31517 -0.0438,9.49553 0,2.82707 -1.45784,4.32903 -4.24069,4.41732 -1.81106,0.0438 -3.62226,0.0895 -5.43332,0.0895 -1.59021,0 -3.18033,5.6e-4 -4.77055,-0.0438 -3.0037,-0.0438 -4.4173,-1.76775 -4.4173,-4.68311 -0.0441,-2.29696 -0.0437,-4.63854 -0.0437,-6.93549 -0.0441,-5.124 -0.22066,-5.301 -5.12378,-6.0961 -6.27244,-1.01597 -12.45668,-2.42833 -18.19907,-5.21119 -4.50558,-2.20861 -4.99183,-3.31381 -3.71083,-8.08442 0.97178,-3.53377 1.94374,-7.06749 3.04805,-10.5571 0.79509,-2.56199 1.54579,-3.70901 2.91513,-3.70901 0.79511,0 1.81162,0.39666 3.18097,1.10342 6.3608,3.31292 13.11938,5.16895 20.2311,6.05239 1.19265,0.13252 2.38525,0.22032 3.57791,0.22032 3.31292,0 6.53777,-0.619 9.674,-1.98833 7.90683,-3.44545 9.14266,-12.5888 2.47267,-18.06615 -2.2528,-1.85524 -4.85825,-3.22465 -7.55275,-4.41731 -6.93505,-3.04788 -14.13606,-5.3439 -20.67356,-9.27524 -10.60134,-6.3608 -17.31537,-15.064 -16.52028,-27.96229 0.88345,-14.57684 9.14478,-23.67508 22.52897,-28.53403 5.52153,-1.98775 5.56442,-1.94509 5.56442,-7.68749 0,-1.94357 -0.0428,-3.8862 0.0455,-5.87395 0.13252,-4.32888 0.83861,-5.08048 5.16748,-5.213 z" id="path192" opacity="0.8" fill="none" stroke="#ffffff" vector-effect="none" stroke-linejoin="round" stroke-width="64"/>
 <path id="path194" d="m 133.57189,195.07618 a 17.13956,17.13956 0 0 0 -12.05938,5.16406 17.13956,17.13956 0 0 0 0.2875,24.23751 l 13.72031,13.3984 H 49.139072 A 17.13956,17.13956 0 0 0 32,255.01527 a 17.13956,17.13956 0 0 0 0.21096,1.6 17.13956,17.13956 0 0 0 -0.21096,1.6 17.13956,17.13956 0 0 0 17.139072,17.14056 h 86.381248 l -13.72031,13.39848 a 17.13956,17.13956 0 0 0 -0.2875,24.23592 17.13956,17.13956 0 0 0 24.23594,0.28904 l 43.83281,-42.8 a 17.141274,17.141274 0 0 0 5.04063,-13.86248 17.141274,17.141274 0 0 0 -5.04063,-13.86408 l -43.83281,-42.79996 a 17.13956,17.13956 0 0 0 -7.73438,-4.34532 17.13956,17.13956 0 0 0 -4.44218,-0.53125 z" opacity="0.8" fill="none" stroke="#ffffff" stroke-linejoin="round" vector-effect="none" color="#000000" stroke-width="64"/>
 <path d="m 243.82662,120.69633 c -4.2021,5.7e-4 -7.60843,3.40689 -7.60899,7.60899 v 242.02089 c 1.2e-4,3.49177 2.37591,6.536 5.12635,7.10616 l 34.72948,0.5696 c 4.20209,-5.6e-4 7.60841,-3.40689 7.60898,-7.60899 v -90.94246 h 54.06947 c 35.44064,0 61.37261,-7.14059 76.08066,-23.32583 14.70805,-16.18524 22.03476,-35.76118 22.03476,-57.96235 0,-12.83598 -2.64687,-25.10065 -8.08169,-36.19472 -5.36655,-11.02162 -12.67429,-19.94292 -21.88155,-26.31127 -9.13118,-6.31575 -20.1646,-10.41436 -32.87274,-12.57035 -9.30629,-1.59955 -21.7502,-2.38967 -38.02789,-2.38967 z m 39.92391,43.91237 h 54.06816 c 14.18027,0 24.07926,0.9071 27.85509,1.88817 6.62987,1.84373 11.70703,5.39275 15.86874,11.30675 4.1283,5.86654 6.25636,12.86162 6.25636,21.63278 0,12.40648 -3.50174,20.67178 -10.41767,26.85993 -6.75853,5.81562 -19.57246,9.71189 -39.2273,9.71189 h -54.40338 z" id="path4136" fill="#20a0a0"/>
 <path d="m 452.23187,301.76747 c -49.57537,0 -89.76812,40.19275 -89.76812,89.76812 0,49.57537 40.19275,89.76808 89.76812,89.76808 49.57538,0 89.76813,-40.19271 89.76813,-89.76808 0,-49.57537 -40.19275,-89.76812 -89.76813,-89.76812 z m -3.76362,16.28721 h 1.50217 2.51819 1.01601 c 8.21603,0 8.21505,0.35475 8.25924,9.23337 0.0441,6.53749 0.0433,6.53679 6.53673,7.55275 4.99146,0.7951 9.7195,2.25245 14.31344,4.28438 2.51781,1.1043 3.4881,2.87173 2.693,5.56624 -1.14848,3.97551 -2.25187,7.99503 -3.48869,11.92636 -0.7951,2.38529 -1.54531,3.48868 -2.95883,3.48868 -0.7951,0 -1.76754,-0.30838 -3.00435,-0.9268 -6.36081,-3.09206 -13.03157,-4.59392 -20.01078,-4.59392 -0.88345,0 -1.81138,0.0433 -2.69481,0.0874 -2.07611,0.13251 -4.10699,0.39888 -6.05058,1.23815 -6.89087,3.00371 -7.99616,10.60167 -2.12125,15.28394 2.95954,2.3853 6.36101,4.06303 9.85062,5.52072 6.09577,2.51781 12.19218,4.94772 17.97875,8.12813 18.19896,10.15962 23.14632,33.26194 10.20385,48.98727 -4.68225,5.69821 -10.77778,9.54031 -17.88952,11.48389 -3.09205,0.83927 -4.50659,2.47457 -4.3299,5.69915 0.13252,3.18041 4e-4,6.31517 -0.0438,9.49553 0,2.82707 -1.45784,4.32903 -4.24069,4.41732 -1.81106,0.0438 -3.62226,0.0895 -5.43332,0.0895 -1.59021,0 -3.18033,5.6e-4 -4.77055,-0.0438 -3.0037,-0.0438 -4.4173,-1.76775 -4.4173,-4.68311 -0.0441,-2.29696 -0.0437,-4.63854 -0.0437,-6.93549 -0.0441,-5.124 -0.22066,-5.301 -5.12378,-6.0961 -6.27244,-1.01597 -12.45668,-2.42833 -18.19907,-5.21119 -4.50558,-2.20861 -4.99183,-3.31381 -3.71083,-8.08442 0.97178,-3.53377 1.94374,-7.06749 3.04805,-10.5571 0.79509,-2.56199 1.54579,-3.70901 2.91513,-3.70901 0.79511,0 1.81162,0.39666 3.18097,1.10342 6.3608,3.31292 13.11938,5.16895 20.2311,6.05239 1.19265,0.13252 2.38525,0.22032 3.57791,0.22032 3.31292,0 6.53777,-0.619 9.674,-1.98833 7.90683,-3.44545 9.14266,-12.5888 2.47267,-18.06615 -2.2528,-1.85524 -4.85825,-3.22465 -7.55275,-4.41731 -6.93505,-3.04788 -14.13606,-5.3439 -20.67356,-9.27524 -10.60134,-6.3608 -17.31537,-15.064 -16.52028,-27.96229 0.88345,-14.57684 9.14478,-23.67508 22.52897,-28.53403 5.52153,-1.98775 5.56442,-1.94509 5.56442,-7.68749 0,-1.94357 -0.0428,-3.8862 0.0455,-5.87395 0.13252,-4.32888 0.83861,-5.08048 5.16748,-5.213 z" id="path5108" fill="#20a0a0" vector-effect="none"/>
 <path id="path8395-0" d="m 133.57189,195.07618 a 17.13956,17.13956 0 0 0 -12.05938,5.16406 17.13956,17.13956 0 0 0 0.2875,24.23751 l 13.72031,13.3984 H 49.139072 A 17.13956,17.13956 0 0 0 32,255.01527 a 17.13956,17.13956 0 0 0 0.21096,1.6 17.13956,17.13956 0 0 0 -0.21096,1.6 17.13956,17.13956 0 0 0 17.139072,17.14056 h 86.381248 l -13.72031,13.39848 a 17.13956,17.13956 0 0 0 -0.2875,24.23592 17.13956,17.13956 0 0 0 24.23594,0.28904 l 43.83281,-42.8 a 17.141274,17.141274 0 0 0 5.04063,-13.86248 17.141274,17.141274 0 0 0 -5.04063,-13.86408 l -43.83281,-42.79996 a 17.13956,17.13956 0 0 0 -7.73438,-4.34532 17.13956,17.13956 0 0 0 -4.44218,-0.53125 z" fill="#20a0a0" stroke-linejoin="round" stroke-linecap="round" color="#000000" stroke-width="0.8"/>
</svg>
