<?xml version="1.0" encoding="UTF-8" standalone="no"?>
<svg version="1.0" width="580" height="580" xmlns="http://www.w3.org/2000/svg">
 <metadata id="metadata10"/>
 <path d="m 308.0918,136.43984 c -2.08,0 -4.16,0.80031 -5.6,2.32031 -1.44,1.44 -2.32031,3.52 -2.32031,5.6 v 15.6 h 24.56093 v 28.87969 h 29.11876 v -29.12031 h -29.11876 v -23.27969 z m 46.4,0 v 22.4 h 29.12031 v -22.4 z m 59.27969,0 -0.0797,21.84062 h 29.12031 v -21.2 c -7.36,-0.4 -15.6,-0.64062 -24.8,-0.64062 z m 60.87969,5.24062 -0.0797,15.47969 h 29.12032 v -2.24062 c -0.32,-0.24 -0.63938,-0.47907 -0.95938,-0.63907 -8,-5.6 -17.52124,-9.76 -28.08124,-12.6 z m 29.32031,14.91876 0.0406,29.04062 h 24.8 c 0,-0.08 -0.0797,-0.0794 -0.0797,-0.15938 -5.84,-11.84 -13.52093,-21.6 -22.96093,-28.8 z m -120.03907,1.36093 v 28.8 h 29.11876 v -28.8 z m 60,0.0797 v 29.12031 h 29.11876 v -29.12032 z m 59.51876,28.32031 -29.11876,0.0391 v 16.04058 c 0.16,0.24 0.31969,0.40062 0.47969,0.64062 2.64,3.76 4.64031,7.84 5.92031,12.4 h 22.71876 z m -203.35938,2.07968 v 29.12031 h 24.55938 v -29.12031 z m 232.8,5.67969 v 19.92031 h -28.8 v 29.12031 h 29.12031 v -28.32031 h 4.55938 c -0.88,-7.2 -2.47969,-14.08031 -4.87969,-20.72031 z m -207.2,23.04062 v 29.12031 h 29.12031 v -29.12031 z m 156.07969,26.8 c -1.44,5.12 -3.59907,9.59938 -6.63907,13.35938 v 15.76093 h 28.95938 v -0.64062 h 0.15938 v -28.47969 z m 22.47969,28.47969 v 0.64062 h -0.15938 v 28.47969 h 3.35938 c 1.92,-1.68 3.68062,-3.36 5.44062,-5.2 6.72,-7.28 12,-15.20031 16,-23.92031 z m 29.6,-28.4 v 18.87969 c 2.08,-6.08 3.60093,-12.31969 4.56093,-18.87969 z m -233.75938,2.8 v 29.12031 h 24.55938 v -29.12031 z m 143.2,26.15938 c -3.84,0.56 -7.92,1.04124 -12.4,1.28124 h 12.4 z m 1.35938,0.88124 v 29.11876 h 29.12031 v -29.11876 z m -89.6,0.63907 v 0.4 h 29.12031 v -0.4 z m 29.6,0 v 28.4 h 29.12031 v -28.4 z m -59.2,1.04062 v 29.12031 h 29.12031 v -29.12031 z m 149.6,26.8 v 16 c 11.36,-3.28 21.12031,-7.84031 29.12031,-13.92031 v -2.07969 z m -31.6,0.95938 -29.11876,0.0406 v 21.23907 h 7.51876 c 7.6,0 14.8,-0.31969 21.6,-0.87969 z m -88.31876,0.64062 v 20.63907 h 29.11876 v -20.63907 z m -55.04062,1.27969 v 29.12031 h 24.55938 v -29.12031 z m 24.8,28.8 v 29.12031 h 29.12031 v -29.12031 z m -24.8,29.6 v 29.12031 h 24.55938 v -29.12031 z m 24.8,28.72031 v 29.12031 h 29.12031 v -29.12031 z m -24.8,29.67969 v 13.6 c 0,2.08 0.88031,4.08 2.32031,5.6 1.44,1.44 3.52,2.32031 5.6,2.32031 h 16.63907 v -21.5203 z" id="path66" opacity="0.8" fill="none" stroke="#ffffff" vector-effect="none" stroke-linejoin="round" color="#000000" stroke-width="64"/>
 <path id="path68" d="m 168.15592,213.20215 v 19.67774 h 22.66797 v -5.60742 l -8.26758,-8.07227 a 21.42445,21.42445 0 0 0 -9.66797,-5.43164 21.42445,21.42445 0 0 0 -4.73242,-0.56641 z m 22.66797,19.67774 v 22.66797 h 22.66602 v -6.14258 l -16.92383,-16.5254 z m 22.66602,22.66797 v 22.66601 h 22.66601 v -6.67773 l -16.375,-15.98828 z m 22.66601,22.66601 v 22.66602 h 5.6836 a 21.426592,21.426592 0 0 0 1.80859,-10.84961 21.426592,21.426592 0 0 0 -2.25586,-11.81641 z m 0,22.66602 h -22.66601 v 22.66797 h 7.27734 l 15.38867,-15.02539 z m -22.66601,22.66797 h -22.66602 v 22.66601 h 6.73047 l 15.93555,-15.56054 z m -22.66602,22.66601 h -22.66797 v 20.58399 a 21.42445,21.42445 0 0 0 14.40039,-5.93946 l 8.26758,-8.07226 z m -22.66797,0 v -22.66601 h -8.7207 l -6.81445,6.65429 a 21.42445,21.42445 0 0 0 -6.27735,16.01172 z m 0,-22.66601 h 22.66797 v -22.66798 h -22.66797 v 12.57423 h 1.61524 l -1.61524,1.57812 z m 0,-22.66798 v -22.66601 h -22.66601 v 22.66602 z m -22.66601,0 h -22.66602 v 12.57423 h 22.66602 z m -22.66602,0 v -22.66601 h -22.66796 v 22.66602 z m -22.66796,0 H 77.489911 v 12.57423 h 22.666019 z m -22.666019,0 V 278.21387 H 54.823896 v 22.66602 z m -22.666015,0 H 42.437177 a 21.42445,21.42445 0 0 0 12.386719,11.1875 z m 0,-22.66602 v -10.22264 a 21.42445,21.42445 0 0 0 -11.742188,10.22265 z m 22.666015,0 H 100.15593 V 266.6045 H 77.489911 Z m 45.333979,0 h 22.66602 v -11.60937 h -22.66602 z m 45.33203,0 h 22.66797 v -22.66601 h -22.66797 v 9.47851 l 1.61524,1.57813 h -1.61524 z m 0,-22.66601 v -22.66797 h -21.63476 a 21.42445,21.42445 0 0 0 6.09961,16.97656 l 5.82812,5.69141 z m 22.66797,22.66601 v 22.66602 h 22.66602 v -22.66601 z" opacity="0.8" fill="none" stroke="#ffffff" vector-effect="none" stroke-linejoin="round" color="#000000" stroke-width="64"/>
 <path d="m 308.0918,136.43984 c -2.08,0 -4.16,0.80031 -5.6,2.32031 -1.44,1.44 -2.32031,3.52 -2.32031,5.6 v 15.6 h 24.56093 v 28.87969 h 29.11876 v -29.12031 h -29.11876 v -23.27969 z m 46.4,0 v 22.4 h 29.12031 v -22.4 z m 59.27969,0 -0.0797,21.84062 h 29.12031 v -21.2 c -7.36,-0.4 -15.6,-0.64062 -24.8,-0.64062 z m 60.87969,5.24062 -0.0797,15.47969 h 29.12032 v -2.24062 c -0.32,-0.24 -0.63938,-0.47907 -0.95938,-0.63907 -8,-5.6 -17.52124,-9.76 -28.08124,-12.6 z m 29.32031,14.91876 0.0406,29.04062 h 24.8 c 0,-0.08 -0.0797,-0.0794 -0.0797,-0.15938 -5.84,-11.84 -13.52093,-21.6 -22.96093,-28.8 z m -120.03907,1.36093 v 28.8 h 29.11876 v -28.8 z m 60,0.0797 v 29.12031 h 29.11876 v -29.12032 z m 59.51876,28.32031 -29.11876,0.0391 v 16.04058 c 0.16,0.24 0.31969,0.40062 0.47969,0.64062 2.64,3.76 4.64031,7.84 5.92031,12.4 h 22.71876 z m -203.35938,2.07968 v 29.12031 h 24.55938 v -29.12031 z m 232.8,5.67969 v 19.92031 h -28.8 v 29.12031 h 29.12031 v -28.32031 h 4.55938 c -0.88,-7.2 -2.47969,-14.08031 -4.87969,-20.72031 z m -207.2,23.04062 v 29.12031 h 29.12031 v -29.12031 z m 156.07969,26.8 c -1.44,5.12 -3.59907,9.59938 -6.63907,13.35938 v 15.76093 h 28.95938 v -0.64062 h 0.15938 v -28.47969 z m 22.47969,28.47969 v 0.64062 h -0.15938 v 28.47969 h 3.35938 c 1.92,-1.68 3.68062,-3.36 5.44062,-5.2 6.72,-7.28 12,-15.20031 16,-23.92031 z m 29.6,-28.4 v 18.87969 c 2.08,-6.08 3.60093,-12.31969 4.56093,-18.87969 z m -233.75938,2.8 v 29.12031 h 24.55938 v -29.12031 z m 143.2,26.15938 c -3.84,0.56 -7.92,1.04124 -12.4,1.28124 h 12.4 z m 1.35938,0.88124 v 29.11876 h 29.12031 v -29.11876 z m -89.6,0.63907 v 0.4 h 29.12031 v -0.4 z m 29.6,0 v 28.4 h 29.12031 v -28.4 z m -59.2,1.04062 v 29.12031 h 29.12031 v -29.12031 z m 149.6,26.8 v 16 c 11.36,-3.28 21.12031,-7.84031 29.12031,-13.92031 v -2.07969 z m -31.6,0.95938 -29.11876,0.0406 v 21.23907 h 7.51876 c 7.6,0 14.8,-0.31969 21.6,-0.87969 z m -88.31876,0.64062 v 20.63907 h 29.11876 v -20.63907 z m -55.04062,1.27969 v 29.12031 h 24.55938 v -29.12031 z m 24.8,28.8 v 29.12031 h 29.12031 v -29.12031 z m -24.8,29.6 v 29.12031 h 24.55938 v -29.12031 z m 24.8,28.72031 v 29.12031 h 29.12031 v -29.12031 z m -24.8,29.67969 v 13.6 c 0,2.08 0.88031,4.08 2.32031,5.6 1.44,1.44 3.52,2.32031 5.6,2.32031 h 16.63907 v -21.5203 z" id="path4190" opacity="0.8" fill="#20a0a0" color="#000000"/>
 <path id="path8395-0" d="m 168.15592,213.20215 v 19.67774 h 22.66797 v -5.60742 l -8.26758,-8.07227 a 21.42445,21.42445 0 0 0 -9.66797,-5.43164 21.42445,21.42445 0 0 0 -4.73242,-0.56641 z m 22.66797,19.67774 v 22.66797 h 22.66602 v -6.14258 l -16.92383,-16.5254 z m 22.66602,22.66797 v 22.66601 h 22.66601 v -6.67773 l -16.375,-15.98828 z m 22.66601,22.66601 v 22.66602 h 5.6836 a 21.426592,21.426592 0 0 0 1.80859,-10.84961 21.426592,21.426592 0 0 0 -2.25586,-11.81641 z m 0,22.66602 h -22.66601 v 22.66797 h 7.27734 l 15.38867,-15.02539 z m -22.66601,22.66797 h -22.66602 v 22.66601 h 6.73047 l 15.93555,-15.56054 z m -22.66602,22.66601 h -22.66797 v 20.58399 a 21.42445,21.42445 0 0 0 14.40039,-5.93946 l 8.26758,-8.07226 z m -22.66797,0 v -22.66601 h -8.7207 l -6.81445,6.65429 a 21.42445,21.42445 0 0 0 -6.27735,16.01172 z m 0,-22.66601 h 22.66797 v -22.66798 h -22.66797 v 12.57423 h 1.61524 l -1.61524,1.57812 z m 0,-22.66798 v -22.66601 h -22.66601 v 22.66602 z m -22.66601,0 h -22.66602 v 12.57423 h 22.66602 z m -22.66602,0 v -22.66601 h -22.66796 v 22.66602 z m -22.66796,0 H 77.489911 v 12.57423 h 22.666019 z m -22.666019,0 V 278.21387 H 54.823896 v 22.66602 z m -22.666015,0 H 42.437177 a 21.42445,21.42445 0 0 0 12.386719,11.1875 z m 0,-22.66602 v -10.22264 a 21.42445,21.42445 0 0 0 -11.742188,10.22265 z m 22.666015,0 H 100.15593 V 266.6045 H 77.489911 Z m 45.333979,0 h 22.66602 v -11.60937 h -22.66602 z m 45.33203,0 h 22.66797 v -22.66601 h -22.66797 v 9.47851 l 1.61524,1.57813 h -1.61524 z m 0,-22.66601 v -22.66797 h -21.63476 a 21.42445,21.42445 0 0 0 6.09961,16.97656 l 5.82812,5.69141 z m 22.66797,22.66601 v 22.66602 h 22.66602 v -22.66601 z" opacity="0.8" fill="#20a0a0" vector-effect="none" color="#000000"/>
</svg>
