<?xml version="1.0" encoding="UTF-8" standalone="no"?>
<svg version="1.0" width="435" height="435" xmlns="http://www.w3.org/2000/svg">
 <metadata id="metadata1976"/>
 <path id="path993" d="m 245.43045,32.001664 a 23.673414,23.673414 0 0 0 -16.6566,7.132682 23.673414,23.673414 0 0 0 0.3971,33.477198 l 18.9507,18.506113 H 128.8106 a 23.673414,23.673414 0 0 0 -23.67273,23.672733 23.673414,23.673414 0 0 0 0.29135,2.20994 23.673414,23.673414 0 0 0 -0.29135,2.20995 23.673414,23.673414 0 0 0 23.67273,23.67488 h 119.31105 l -18.9507,18.50612 a 23.673414,23.673414 0 0 0 -0.3971,33.47504 23.673414,23.673414 0 0 0 33.47505,0.39926 l 60.54253,-59.116 a 23.67578,23.67578 0 0 0 6.96218,-19.14709 23.67578,23.67578 0 0 0 -6.96218,-19.149246 L 262.2489,38.737252 a 23.673414,23.673414 0 0 0 -10.68284,-6.001809 23.673414,23.673414 0 0 0 -6.13561,-0.733779 z" opacity="0.8" fill="none" stroke="#ffffff" vector-effect="none" stroke-linejoin="round" color="#000000" stroke-width="64"/>
 <path d="M 316.3764,325 A 98.876404,98.876404 0 0 1 217.5,423.8764 98.876404,98.876404 0 0 1 118.6236,325 98.876404,98.876404 0 0 1 217.5,226.1236 98.876404,98.876404 0 0 1 316.3764,325 Z" id="path4175" fill="#115d91" stroke="#ffffff" stroke-linejoin="bevel" stroke-linecap="square" stroke-width="22.25"/>
 <path id="path8395-0" d="m 245.43045,32.001664 a 23.673414,23.673414 0 0 0 -16.6566,7.132682 23.673414,23.673414 0 0 0 0.3971,33.477198 l 18.9507,18.506113 H 128.8106 a 23.673414,23.673414 0 0 0 -23.67273,23.672733 23.673414,23.673414 0 0 0 0.29135,2.20994 23.673414,23.673414 0 0 0 -0.29135,2.20995 23.673414,23.673414 0 0 0 23.67273,23.67488 h 119.31105 l -18.9507,18.50612 a 23.673414,23.673414 0 0 0 -0.3971,33.47504 23.673414,23.673414 0 0 0 33.47505,0.39926 l 60.54253,-59.116 a 23.67578,23.67578 0 0 0 6.96218,-19.14709 23.67578,23.67578 0 0 0 -6.96218,-19.149246 L 262.2489,38.737252 a 23.673414,23.673414 0 0 0 -10.68284,-6.001809 23.673414,23.673414 0 0 0 -6.13561,-0.733779 z" fill="#115d91" vector-effect="none" color="#000000"/>
</svg>
