<?xml version="1.0" encoding="UTF-8" standalone="no"?>
<svg version="1.0" width="435" height="435" xmlns="http://www.w3.org/2000/svg">
 <metadata id="metadata1976"/>
 <path d="m 316.37679,324.99999 a 98.876413,98.876413 0 0 1 -98.87641,98.87641 98.876413,98.876413 0 0 1 -98.87641,-98.87641 98.876413,98.876413 0 0 1 98.87641,-98.87641 98.876413,98.876413 0 0 1 98.87641,98.87641 z" id="path4175" fill="#38732e" stroke="#ffffff" stroke-linejoin="bevel" stroke-linecap="square" stroke-width="22.25"/>
 <path id="path993" d="m 245.43046,32.001664 a 23.673416,23.673416 0 0 0 -16.65659,7.132682 23.673416,23.673416 0 0 0 0.39709,33.477202 l 18.9507,18.506114 H 128.81059 a 23.673416,23.673416 0 0 0 -23.67273,23.672728 23.673416,23.673416 0 0 0 0.29135,2.20994 23.673416,23.673416 0 0 0 -0.29135,2.20994 23.673416,23.673416 0 0 0 23.67273,23.67489 h 119.31107 l -18.9507,18.50612 a 23.673416,23.673416 0 0 0 -0.39709,33.47504 23.673416,23.673416 0 0 0 33.47503,0.39926 l 60.54254,-59.116 a 23.675783,23.675783 0 0 0 6.96219,-19.1471 23.675783,23.675783 0 0 0 -6.96219,-19.14924 L 262.2489,38.737253 a 23.673416,23.673416 0 0 0 -10.68283,-6.00181 23.673416,23.673416 0 0 0 -6.13561,-0.733779 z" opacity="0.8" fill="none" stroke="#ffffff" vector-effect="none" stroke-linejoin="round" color="#000000" stroke-width="64"/>
 <path id="path8395-0" d="m 245.43046,32.001664 a 23.673416,23.673416 0 0 0 -16.65659,7.132682 23.673416,23.673416 0 0 0 0.39709,33.477202 l 18.9507,18.506114 H 128.81059 a 23.673416,23.673416 0 0 0 -23.67273,23.672728 23.673416,23.673416 0 0 0 0.29135,2.20994 23.673416,23.673416 0 0 0 -0.29135,2.20994 23.673416,23.673416 0 0 0 23.67273,23.67489 h 119.31107 l -18.9507,18.50612 a 23.673416,23.673416 0 0 0 -0.39709,33.47504 23.673416,23.673416 0 0 0 33.47503,0.39926 l 60.54254,-59.116 a 23.675783,23.675783 0 0 0 6.96219,-19.1471 23.675783,23.675783 0 0 0 -6.96219,-19.14924 L 262.2489,38.737253 a 23.673416,23.673416 0 0 0 -10.68283,-6.00181 23.673416,23.673416 0 0 0 -6.13561,-0.733779 z" fill="#38732e" vector-effect="none" color="#000000"/>
</svg>
