<?xml version="1.0" encoding="UTF-8" standalone="no"?>
<svg version="1.0" width="580" height="580" xmlns="http://www.w3.org/2000/svg">
 <metadata id="metadata10"/>
 <path d="m 290,337.69866 c -57.90261,0 -104.84657,46.94396 -104.84657,104.84655 0,57.9026 46.94396,104.84653 104.84657,104.84653 57.90259,0 104.84656,-46.94393 104.84656,-104.84653 0,-57.90259 -46.94396,-104.84655 -104.84656,-104.84655 z m -4.39582,19.02299 h 1.7545 2.94118 1.18667 c 9.59608,0 9.59494,0.41433 9.64655,10.78431 0.0515,7.63559 0.0505,7.63477 7.6347,8.82139 5.82988,0.92866 11.35211,2.63079 16.71769,5.00402 2.94072,1.2898 4.074,3.35411 3.14534,6.50122 -1.34138,4.64327 -2.63011,9.33796 -4.07469,13.92964 -0.92864,2.78595 -1.80488,4.07468 -3.45582,4.07468 -0.92865,0 -2.06444,-0.36019 -3.509,-1.08248 -7.42923,-3.61143 -15.22049,-5.36556 -23.37201,-5.36556 -1.03184,0 -2.11563,0.0505 -3.14745,0.10199 -2.42484,0.15477 -4.79685,0.46589 -7.06691,1.44613 -8.04834,3.50825 -9.33927,12.38244 -2.47756,17.85119 3.45665,2.78597 7.42949,4.74551 11.50524,6.44804 7.11968,2.94074 14.24011,5.77881 20.99866,9.49343 21.25587,11.86614 27.03423,38.84897 11.91781,57.21571 -5.46875,6.65534 -12.58815,11.14281 -20.89445,13.41285 -3.61143,0.98024 -5.26357,2.89023 -5.0572,6.65645 0.15478,3.71462 4.6e-4,7.37594 -0.0511,11.0905 0,3.30193 -1.70272,5.05618 -4.95299,5.1593 -2.11527,0.0512 -4.2307,0.10456 -6.34597,0.10456 -1.85732,0 -3.71453,6.5e-4 -5.57186,-0.0512 -3.50824,-0.0512 -5.15928,-2.06468 -5.15928,-5.46974 -0.0516,-2.68278 -0.0511,-5.41768 -0.0511,-8.10045 -0.0515,-5.98467 -0.25772,-6.19141 -5.98442,-7.12006 -7.32604,-1.18663 -14.54905,-2.83622 -21.25599,-6.08652 -5.26238,-2.5796 -5.83031,-3.87044 -4.33414,-9.44237 1.13501,-4.12735 2.27023,-8.25462 3.56003,-12.33039 0.92864,-2.99233 1.80544,-4.33201 3.40479,-4.33201 0.92866,0 2.11593,0.46329 3.71528,1.28876 7.42923,3.86939 15.32305,6.03718 23.62933,7.06901 1.39299,0.15478 2.78591,0.25734 4.1789,0.25734 3.86939,0 7.63593,-0.72299 11.29895,-2.32232 9.23495,-4.02419 10.67837,-14.70335 2.88802,-21.10074 -2.63121,-2.16687 -5.6743,-3.7663 -8.8214,-5.15929 -8.09994,-3.55983 -16.51051,-6.24153 -24.14612,-10.83322 -12.38205,-7.42922 -20.22386,-17.59431 -19.29521,-32.65914 1.03184,-17.02532 10.68084,-27.65181 26.31318,-33.32692 6.44899,-2.32163 6.49909,-2.27181 6.49909,-8.97876 0,-2.27004 -0.05,-4.53897 0.0531,-6.8606 0.15478,-5.056 0.97946,-5.93386 6.03547,-6.08864 z" id="path5108-5" opacity="0.8" fill="none" stroke="#ffffff" vector-effect="none" stroke-linejoin="round" stroke-width="64"/>
 <path mix-blend-mode="normal" white-space="normal" isolation="auto" id="path4142" d="m 395.802,335 c 0.3,13.9 13.7,25.4 27.4,24 13.8,-0.1 27.5,0.2 41,-0.1 13.5,-1 24,-14.2 22.9,-27.6 v -132 c -0.3,-13.3 -14.3,-24.3 -27.3,-23.3 h -39 c -14.4,-0.4 -26.8,13 -25.2,27.2 z" fill="#ffffff" color-rendering="auto" solid-opacity="1" color-interpolation-filters="linearRGB" shape-rendering="auto" image-rendering="auto" color-interpolation="sRGB" color="#000000" solid-color="#000000"/>
 <path mix-blend-mode="normal" white-space="normal" isolation="auto" id="path4149" d="m 373.802,93.8 c -75,16.7 -151,32.9 -226,50 -19,6.5 -23.5,35.9 -6.6,47 14.5,10.9 32.7,1.6 48,-0.8 90,-19.7 180,-38.9 269,-59 20,-6.7 23.6,-38 4.6,-48.7 -4,-2.6 -8.8,-4 -13.3,-4.25 -25.2,3.55 -49.7,10.75 -75.7,15.75 z" solid-color="#000000" opacity="0.8" color-interpolation-filters="linearRGB" color="#000000" image-rendering="auto" color-rendering="auto" stroke-width="64" color-interpolation="sRGB" solid-opacity="1" fill="none" stroke-linejoin="round" stroke="#ffffff" shape-rendering="auto"/>
 <path mix-blend-mode="normal" white-space="normal" isolation="auto" id="path4151" d="m 395.802,335 c 0.3,13.9 13.7,25.4 27.4,24 13.8,-0.1 27.5,0.2 41,-0.1 13.5,-1 24,-14.2 22.9,-27.6 v -132 c -0.3,-13.3 -14.3,-24.3 -27.3,-23.3 h -39 c -14.4,-0.4 -26.8,13 -25.2,27.2 z" solid-color="#000000" opacity="0.8" color-interpolation-filters="linearRGB" color="#000000" image-rendering="auto" color-rendering="auto" stroke-width="64" color-interpolation="sRGB" solid-opacity="1" fill="none" stroke-linejoin="round" stroke="#ffffff" shape-rendering="auto"/>
 <path mix-blend-mode="normal" white-space="normal" isolation="auto" id="path4153" d="m 93.202,97.5 c 0.1,79 -0.2,158 0.1,237 1.3,17.8 19.7,31 37,28 14.2,-0.9 29,2.4 42.8,-2.8 13.4,-6.1 20,-21.6 18.3,-35.8 v -137 c -15.3,4 -32.7,13.7 -47.9,4 -16.9,-9.3 -12.9,-37.7 4.3,-44 14,-3.8 31.8,-5.3 43,-11.4 -0.4,-16.9 1,-34 -0.9,-50.8 -3.8,-16 -21,-26 -37,-23.8 -9.1,0.1 -19.1,0.1 -28.1,0.1 -18.8,-0.8 -34.4,18.2 -31.6,36.5 z" solid-color="#000000" opacity="0.8" color-interpolation-filters="linearRGB" color="#000000" image-rendering="auto" color-rendering="auto" stroke-width="64" color-interpolation="sRGB" solid-opacity="1" fill="none" stroke-linejoin="round" stroke="#ffffff" shape-rendering="auto"/>
 <path mix-blend-mode="normal" white-space="normal" isolation="auto" id="path4140" d="m 93.202,97.5 c 0.1,79 -0.2,158 0.1,237 1.3,17.8 19.7,31 37,28 14.2,-0.9 29,2.4 42.8,-2.8 13.4,-6.1 20,-21.6 18.3,-35.8 v -137 c -15.3,4 -32.7,13.7 -47.9,4 -16.9,-9.3 -12.9,-37.7 4.3,-44 14,-3.8 31.8,-5.3 43,-11.4 -0.4,-16.9 1,-34 -0.9,-50.8 -3.8,-16 -21,-26 -37,-23.8 -9.1,0.1 -19.1,0.1 -28.1,0.1 -18.8,-0.8 -34.4,18.2 -31.6,36.5 z" fill="#ffffff" color-rendering="auto" solid-opacity="1" color-interpolation-filters="linearRGB" shape-rendering="auto" image-rendering="auto" color-interpolation="sRGB" color="#000000" solid-color="#000000"/>
 <path d="m 373.802,93.8 c -75,16.7 -151,32.9 -226,50 -19,6.5 -23.5,35.9 -6.6,47 14.5,10.9 32.7,1.6 48,-0.8 90,-19.7 180,-38.9 269,-59 20,-6.7 23.6,-38 4.6,-48.7 -4,-2.6 -8.8,-4 -13.3,-4.25 -25.2,3.55 -49.7,10.75 -75.7,15.75 z" id="path3732" isolation="auto" white-space="normal" mix-blend-mode="normal" fill="#666666" color-rendering="auto" solid-opacity="1" color-interpolation-filters="linearRGB" shape-rendering="auto" image-rendering="auto" color-interpolation="sRGB" color="#000000" solid-color="#000000"/>
 <path d="m 395.802,335 c 0.3,13.9 13.7,25.4 27.4,24 13.8,-0.1 27.5,0.2 41,-0.1 13.5,-1 24,-14.2 22.9,-27.6 v -132 c -0.3,-13.3 -14.3,-24.3 -27.3,-23.3 h -39 c -14.4,-0.4 -26.8,13 -25.2,27.2 z" id="rect3827" isolation="auto" white-space="normal" mix-blend-mode="normal" opacity="0.8" fill="#666666" color-rendering="auto" solid-opacity="1" color-interpolation-filters="linearRGB" shape-rendering="auto" image-rendering="auto" color-interpolation="sRGB" color="#000000" solid-color="#000000"/>
 <path d="m 93.202,97.5 c 0.1,79 -0.2,158 0.1,237 1.3,17.8 19.7,31 37,28 14.2,-0.9 29,2.4 42.8,-2.8 13.4,-6.1 20,-21.6 18.3,-35.8 v -137 c -15.3,4 -32.7,13.7 -47.9,4 -16.9,-9.3 -12.9,-37.7 4.3,-44 14,-3.8 31.8,-5.3 43,-11.4 -0.4,-16.9 1,-34 -0.9,-50.8 -3.8,-16 -21,-26 -37,-23.8 -9.1,0.1 -19.1,0.1 -28.1,0.1 -18.8,-0.8 -34.4,18.2 -31.6,36.5 z" id="rect3925" isolation="auto" white-space="normal" mix-blend-mode="normal" opacity="0.8" fill="#666666" color-rendering="auto" solid-opacity="1" color-interpolation-filters="linearRGB" shape-rendering="auto" image-rendering="auto" color-interpolation="sRGB" color="#000000" solid-color="#000000"/>
 <path d="m 290,337.69866 c -57.90261,0 -104.84657,46.94396 -104.84657,104.84655 0,57.9026 46.94396,104.84653 104.84657,104.84653 57.90259,0 104.84656,-46.94393 104.84656,-104.84653 0,-57.90259 -46.94396,-104.84655 -104.84656,-104.84655 z m -4.39582,19.02299 h 1.7545 2.94118 1.18667 c 9.59608,0 9.59494,0.41433 9.64655,10.78431 0.0515,7.63559 0.0505,7.63477 7.6347,8.82139 5.82988,0.92866 11.35211,2.63079 16.71769,5.00402 2.94072,1.2898 4.074,3.35411 3.14534,6.50122 -1.34138,4.64327 -2.63011,9.33796 -4.07469,13.92964 -0.92864,2.78595 -1.80488,4.07468 -3.45582,4.07468 -0.92865,0 -2.06444,-0.36019 -3.509,-1.08248 -7.42923,-3.61143 -15.22049,-5.36556 -23.37201,-5.36556 -1.03184,0 -2.11563,0.0505 -3.14745,0.10199 -2.42484,0.15477 -4.79685,0.46589 -7.06691,1.44613 -8.04834,3.50825 -9.33927,12.38244 -2.47756,17.85119 3.45665,2.78597 7.42949,4.74551 11.50524,6.44804 7.11968,2.94074 14.24011,5.77881 20.99866,9.49343 21.25587,11.86614 27.03423,38.84897 11.91781,57.21571 -5.46875,6.65534 -12.58815,11.14281 -20.89445,13.41285 -3.61143,0.98024 -5.26357,2.89023 -5.0572,6.65645 0.15478,3.71462 4.6e-4,7.37594 -0.0511,11.0905 0,3.30193 -1.70272,5.05618 -4.95299,5.1593 -2.11527,0.0512 -4.2307,0.10456 -6.34597,0.10456 -1.85732,0 -3.71453,6.5e-4 -5.57186,-0.0512 -3.50824,-0.0512 -5.15928,-2.06468 -5.15928,-5.46974 -0.0516,-2.68278 -0.0511,-5.41768 -0.0511,-8.10045 -0.0515,-5.98467 -0.25772,-6.19141 -5.98442,-7.12006 -7.32604,-1.18663 -14.54905,-2.83622 -21.25599,-6.08652 -5.26238,-2.5796 -5.83031,-3.87044 -4.33414,-9.44237 1.13501,-4.12735 2.27023,-8.25462 3.56003,-12.33039 0.92864,-2.99233 1.80544,-4.33201 3.40479,-4.33201 0.92866,0 2.11593,0.46329 3.71528,1.28876 7.42923,3.86939 15.32305,6.03718 23.62933,7.06901 1.39299,0.15478 2.78591,0.25734 4.1789,0.25734 3.86939,0 7.63593,-0.72299 11.29895,-2.32232 9.23495,-4.02419 10.67837,-14.70335 2.88802,-21.10074 -2.63121,-2.16687 -5.6743,-3.7663 -8.8214,-5.15929 -8.09994,-3.55983 -16.51051,-6.24153 -24.14612,-10.83322 -12.38205,-7.42922 -20.22386,-17.59431 -19.29521,-32.65914 1.03184,-17.02532 10.68084,-27.65181 26.31318,-33.32692 6.44899,-2.32163 6.49909,-2.27181 6.49909,-8.97876 0,-2.27004 -0.05,-4.53897 0.0531,-6.8606 0.15478,-5.056 0.97946,-5.93386 6.03547,-6.08864 z" id="path5108" fill="#666666" vector-effect="none"/>
</svg>
