<?xml version="1.0" encoding="UTF-8" standalone="no"?>
<svg
   xmlns:dc="http://purl.org/dc/elements/1.1/"
   xmlns:cc="http://creativecommons.org/ns#"
   xmlns:rdf="http://www.w3.org/1999/02/22-rdf-syntax-ns#"
   xmlns:svg="http://www.w3.org/2000/svg"
   xmlns="http://www.w3.org/2000/svg"
   xmlns:sodipodi="http://sodipodi.sourceforge.net/DTD/sodipodi-0.dtd"
   xmlns:inkscape="http://www.inkscape.org/namespaces/inkscape"
   version="1.1"
   id="svg2"
   width="746"
   height="777"
   viewBox="0 0 746 777"
   sodipodi:docname="w_halfpipe_cyan.svg"
   inkscape:version="1.0.2 (e86c870879, 2021-01-15, custom)">
  <metadata
     id="metadata8">
    <rdf:RDF>
      <cc:Work
         rdf:about="">
        <dc:format>image/svg+xml</dc:format>
        <dc:type
           rdf:resource="http://purl.org/dc/dcmitype/StillImage" />
        <dc:title />
      </cc:Work>
    </rdf:RDF>
  </metadata>
  <defs
     id="defs6" />
  <sodipodi:namedview
     pagecolor="#ffffff"
     bordercolor="#666666"
     borderopacity="1"
     objecttolerance="10"
     gridtolerance="10"
     guidetolerance="10"
     inkscape:pageopacity="0"
     inkscape:pageshadow="2"
     inkscape:window-width="1920"
     inkscape:window-height="1147"
     id="namedview4"
     showgrid="false"
     inkscape:zoom="0.85908468"
     inkscape:cx="524.19742"
     inkscape:cy="359.14764"
     inkscape:window-x="-8"
     inkscape:window-y="-8"
     inkscape:window-maximized="1"
     inkscape:current-layer="svg2"
     inkscape:document-rotation="0" />
  <path
     style="fill:#00ffff;fill-opacity:1;stroke:none;stroke-width:2;stroke-miterlimit:4;stroke-dasharray:none;stroke-opacity:1"
     d="m 398,738.88445 c -15.1333,-0.66722 -32.96836,-2.66776 -44.00613,-4.93613 C 310.02653,724.91263 274.07394,711.69462 239,691.6707 158.95204,645.97084 101.46705,574.02001 70.589532,480.88048 56.869566,439.49532 49.635514,401.13871 46.92355,355.39803 c -0.688124,-11.60609 -0.965359,-21.84669 -0.616078,-22.75691 0.557412,-1.45259 1.891773,-1.57446 10.913792,-0.99679 5.653305,0.36197 10.609345,1.15258 11.013423,1.7569 0.404078,0.60432 0.751789,6.04877 0.77269,12.09877 0.06312,18.26927 2.124408,40.55298 5.503875,59.5 0.735751,4.125 1.634684,9.525 1.997629,12 2.359094,16.0872 11.944984,50.15407 20.681767,73.5 31.748272,84.83592 90.263042,151.09007 167.905492,190.11331 68.53294,34.44477 137.00954,44.92402 211.40386,32.35198 30.35054,-5.12899 69.30988,-18.33579 101.5,-34.4074 33.19977,-16.57569 69.14851,-40.79804 91.29423,-61.51428 l 6.51726,-6.09658 6.84426,7.59704 c 3.76434,4.17838 6.9802,8.19076 7.14637,8.91639 0.97879,4.27429 -44.66147,38.55755 -73.30212,55.06184 -9.15808,5.27738 -34.07511,18.06089 -42.5,21.80434 -59.34284,26.3679 -114.79635,37.25626 -176,34.55781 z m -30.04306,-79.661 C 363.5416,652.68903 343.9483,623.54839 286.44989,538 c -15.34105,-22.825 -33.78414,-50.247 -40.98465,-60.93777 -7.20051,-10.69077 -13.6885,-19.63665 -14.41774,-19.87973 -0.77773,-0.25924 -1.0426,0.0164 -0.64067,0.66676 0.37688,0.60979 1.30273,4.15567 2.05746,7.87973 2.98845,14.74599 4.7995,23.25502 13.04083,61.27101 4.70968,21.725 8.8235,40.71017 9.14182,42.18926 0.54953,2.55342 0.28262,2.77294 -5.28409,4.34594 -3.22457,0.91118 -7.66285,2.25129 -9.86285,2.97804 -2.2,0.72674 -4.36216,0.97391 -4.80479,0.54926 -0.74479,-0.71452 -3.55718,-14.1482 -19.69232,-94.0625 -3.27592,-16.225 -8.00872,-39.58514 -10.51734,-51.91142 l -4.56112,-22.41142 -13.82542,-21.08858 C 178.49504,375.98986 166.96701,358.4 160.48118,348.5 c -24.1377,-36.8439 -30.33581,-46.30189 -38.30949,-58.45825 -4.80608,-7.32717 -8.17294,-13.50509 -8.17473,-15 -0.005,-4.35148 3.20544,-28.46817 3.98251,-29.9146 0.50582,-0.94154 2.7779,1.72891 7.23197,8.5 52.34059,79.5683 62.96631,95.52843 63.34651,95.14823 0.1929,-0.1929 -10.92279,-56.68432 -24.70152,-125.53649 L 138.80417,98.053127 146.96833,86.544638 C 154.38812,76.085439 157,72.926721 157,74.412671 c 0,0.291887 3.88501,19.780945 8.63335,43.309019 8.70572,43.13683 10.23685,50.83709 12.28416,61.77831 0.61749,3.3 1.54741,7.8 2.0665,10 0.51909,2.2 1.69247,8.05 2.60751,13 0.91504,4.95 1.97483,9.58602 2.35509,10.30226 0.50657,0.95415 2.27685,0.14052 6.62239,-3.04368 21.80618,-15.97847 57.86172,-31.64367 94.67761,-41.13497 16.96296,-4.37312 39.23651,-8.95168 49.25339,-10.12453 2.75,-0.32199 7.7,-1.01632 11,-1.54296 7.48898,-1.19514 29.74756,-3.0419 30.27739,-2.51207 0.52502,0.52503 -14.71027,46.74942 -15.87455,48.16391 -0.50158,0.60938 -5.97241,1.4252 -12.1574,1.81293 -10.35149,0.64893 -15.67234,1.2353 -32.24544,3.55352 -21.63179,3.02583 -50.55577,9.76479 -71,16.54221 -14.59682,4.83896 -32.63218,12.4605 -31.98066,13.51467 0.28657,0.46368 3.32445,2.18112 6.75085,3.81652 3.4264,1.6354 15.22981,7.33863 26.22981,12.67385 11,5.33521 26.46533,12.80826 34.3674,16.60677 l 14.3674,6.90639 6.6326,-5.4005 C 315.42666,261.59389 323.49613,258 334.72629,258 c 7.79293,0 10.31026,1.02712 23.95944,9.77595 12.32178,7.89799 38.39286,22.47879 39.03853,21.83312 0.23633,-0.23633 -0.25604,-5.98255 -1.09416,-12.76938 -4.17347,-33.79562 -4.51566,-55.49258 -1.31484,-83.36813 2.68232,-23.36002 4.73303,-30.19861 11.20341,-37.36054 4.91187,-5.43686 11.15057,-8.14583 28.98133,-12.58428 42.04537,-10.46598 71.94559,-24.66934 107.54735,-51.087724 11.323,-8.402258 33.31493,-26.992909 38.95265,-32.928219 1.925,-2.026611 4.73969,-4.57781 6.25486,-5.66933 l 2.75487,-1.984583 1.87316,4.321558 c 1.03024,2.376857 3.00786,6.796558 4.3947,9.821558 3.67998,8.026835 29.77253,67.01018 30.71684,69.43676 0.4416,1.13478 2.36478,5.43824 4.27372,9.56324 1.90894,4.125 6.51517,14.475 10.23607,23 3.7209,8.525 7.99625,18.2 9.50079,21.5 1.50453,3.3 4.99272,11.175 7.75151,17.5 4.94838,11.34497 8.43639,19.1943 12.44238,28 1.12595,2.475 4.40342,9.9 7.28326,16.5 2.87985,6.6 6.26287,14.25 7.51784,17 1.25497,2.75 4.64287,10.4 7.52867,17 4.76046,10.88746 8.15595,18.54269 11.99942,27.05304 6.17864,13.68099 7.47191,16.82531 7.47191,18.16641 0,1.41786 -8.64963,18.30119 -11.63735,22.7151 -1.21094,1.78897 -1.49109,1.5256 -3.7229,-3.5 -1.32739,-2.989 -3.75315,-8.35955 -5.39059,-11.93455 -1.63744,-3.575 -4.44766,-9.875 -6.24494,-14 -1.79728,-4.125 -4.82273,-10.875 -6.72322,-15 -1.9005,-4.125 -4.50044,-9.975 -5.77764,-13 -1.27721,-3.025 -4.20372,-9.55 -6.50336,-14.5 -2.29964,-4.95 -5.22578,-11.475 -6.50253,-14.5 -2.10615,-4.99008 -4.91654,-11.28576 -10.71361,-24 -1.12848,-2.475 -3.5106,-7.875 -5.2936,-12 -1.78301,-4.125 -4.70024,-10.65 -6.48275,-14.5 -3.17381,-6.85507 -4.3843,-9.56466 -16.94153,-37.92236 -3.39077,-7.6573 -7.32,-16.4323 -8.73162,-19.5 -1.41161,-3.0677 -4.14682,-9.17764 -6.07823,-13.57764 -1.93141,-4.4 -5.17253,-11.6 -7.20249,-16 -2.02996,-4.4 -4.75527,-10.5875 -6.05625,-13.75 -1.30098,-3.1625 -2.76774,-5.75 -3.25946,-5.75 -0.49173,0 -4.34642,3.67641 -8.56599,8.16981 -9.09313,9.68323 -29.94048,27.34007 -42.04337,35.60899 -25.84467,17.65756 -54.30281,31.26904 -81.12857,38.80364 -5.225,1.46756 -9.92283,3.0572 -10.43962,3.53254 -1.14727,1.05526 0.80829,31.95365 3.00806,47.52814 4.70936,33.34248 9.86596,57.69525 16.80351,79.35688 4.55647,14.22703 6.06262,25.08884 4.59851,33.16293 -1.94775,10.74116 -5.4892,15.56211 -14.97046,20.37917 -4.78615,2.43166 -18.5271,2.47276 -26,0.0778 -7.01348,-2.24774 -6.89114,-2.19069 -23.5,-10.95924 -16.42639,-8.67222 -70.22099,-35.99023 -72.72083,-36.92915 -1.1711,-0.43986 -4.20592,1.18664 -9.5,5.09149 -35.98253,26.54027 -71.81705,47.09299 -105.09399,60.27616 -2.59037,1.02621 -2.33523,3.332 0.8721,7.88152 0.97686,1.38564 7.93384,11.96934 15.45998,23.51934 18.63948,28.60513 19.88585,30.44467 20.64757,30.47421 0.36566,0.0142 2.20196,-2.11171 4.08068,-4.72421 3.83156,-5.32808 29.7769,-41.19339 39.24502,-54.25 3.39012,-4.675 10.31853,-14.22758 15.39648,-21.22795 5.07794,-7.00037 9.5432,-12.90352 9.92281,-13.1181 0.3796,-0.21458 5.64018,0.19701 11.69018,0.91466 6.05,0.71764 16.81521,1.99599 23.92268,2.84078 7.10747,0.84478 13.28758,1.90087 13.73358,2.34687 1.38415,1.38415 -33.97758,69.86453 -51.50543,99.74374 -9.4475,16.10487 -20.54763,33.17492 -24.49797,37.67356 l -3.22582,3.67356 16.21211,24.32644 C 357.90705,601.34827 392.338,653.65691 392.67034,655 c 0.25707,1.03888 -2.54117,2.9602 -9.1026,6.25 -5.21058,2.6125 -9.83242,4.73805 -10.27076,4.72345 -0.43834,-0.0146 -2.84136,-3.0521 -5.34004,-6.75 z M 214.32517,327.8519 c 44.16816,-25.53568 56.57152,-32.87572 57.15819,-33.82498 0.2922,-0.47278 -17.92202,-10.13643 -40.47605,-21.47477 C 208.45329,261.21381 190,252.43701 190,253.04815 c 0,0.61115 2.94422,15.58783 6.54271,33.28151 3.59849,17.69369 6.99406,34.64534 7.54572,37.67034 1.1892,6.52099 1.64314,8 2.45536,8 0.3336,0 3.83522,-1.86665 7.78138,-4.1481 z M 378.7122,135.90732 c -21.33682,-5.0234 -35.46768,-28.14059 -31.76988,-51.973504 2.24551,-14.47265 11.49243,-27.5634 23.70624,-33.560638 C 375.90821,47.790582 377.51136,47.5 386.5,47.5 c 8.96495,0 10.60006,0.294478 15.79745,2.845068 14.0496,6.89477 24.63156,24.722007 24.68777,41.591043 0.0192,5.759985 -2.63726,16.366729 -5.52589,22.063889 -8.23123,16.23424 -26.68145,25.68972 -42.74713,21.90732 z"
     id="path817"
     inkscape:connector-curvature="0" />
</svg>
