<?xml version="1.0" encoding="UTF-8" standalone="no"?>
<svg
   xmlns:dc="http://purl.org/dc/elements/1.1/"
   xmlns:cc="http://creativecommons.org/ns#"
   xmlns:rdf="http://www.w3.org/1999/02/22-rdf-syntax-ns#"
   xmlns:svg="http://www.w3.org/2000/svg"
   xmlns="http://www.w3.org/2000/svg"
   xmlns:sodipodi="http://sodipodi.sourceforge.net/DTD/sodipodi-0.dtd"
   xmlns:inkscape="http://www.inkscape.org/namespaces/inkscape"
   version="1.1"
   id="svg2"
   width="500"
   height="500"
   viewBox="0 0 500 500"
   sodipodi:docname="w_hundeschlitten_schwarz.svg"
   inkscape:version="1.0.2 (e86c870879, 2021-01-15, custom)">
  <metadata
     id="metadata8">
    <rdf:RDF>
      <cc:Work
         rdf:about="">
        <dc:format>image/svg+xml</dc:format>
        <dc:type
           rdf:resource="http://purl.org/dc/dcmitype/StillImage" />
        <dc:title />
      </cc:Work>
    </rdf:RDF>
  </metadata>
  <defs
     id="defs6" />
  <sodipodi:namedview
     pagecolor="#ffffff"
     bordercolor="#666666"
     borderopacity="1"
     objecttolerance="10"
     gridtolerance="10"
     guidetolerance="10"
     inkscape:pageopacity="0"
     inkscape:pageshadow="2"
     inkscape:window-width="2560"
     inkscape:window-height="1360"
     id="namedview4"
     showgrid="false"
     inkscape:showpageshadow="false"
     inkscape:zoom="1"
     inkscape:cx="-215"
     inkscape:cy="250"
     inkscape:window-x="-11"
     inkscape:window-y="-11"
     inkscape:window-maximized="1"
     inkscape:current-layer="svg2"
     inkscape:document-rotation="0" />
  <path
     style="fill:#000000;fill-opacity:1"
     d="m 329.29719,307.37211 c 0.49963,-1.5125 5.27046,-21.2 10.60183,-43.75 5.33137,-22.55 9.77239,-41.11072 9.86893,-41.24604 0.0965,-0.13533 17.3149,-2.35458 38.26302,-4.93168 l 38.08749,-4.68563 14.61014,-15.32972 c 8.03558,-8.43135 14.78881,-14.7621 15.00717,-14.06833 2.79426,8.87751 1.62635,7.85303 15.64991,13.72804 7.17683,3.00665 13.24482,5.78383 13.48442,6.17151 0.2396,0.38768 -5.08159,5.1277 -11.82487,10.53336 l -12.26051,9.82849 -1.5,13.54315 -1.5,13.54315 -19.90928,28.95685 c -10.95011,15.92627 -20.12905,29.18185 -20.39765,29.45685 -0.72244,0.73965 -0.0861,-1.39428 7.69607,-25.80639 3.91097,-12.26851 7.11105,-22.61851 7.11128,-23 2.4e-4,-0.38148 -16.10707,0.16984 -35.79401,1.22517 l -35.79443,1.91877 -15.45599,23.30713 c -8.5008,12.81892 -15.77008,23.31797 -16.15397,23.33122 -0.38389,0.0133 -0.28919,-1.2134 0.21045,-2.7259 z M 6.2847219,291.65615 v -5.53404 h 28.5146601 28.51467 l -0.26467,-30.25 -0.26466,-30.25 -18,-1.6761 c -9.9,-0.92186 -18.3375,-1.70936 -18.75,-1.75 -0.4125,-0.0406 -0.75,-2.0989 -0.75,-4.5739 0,-4.02205 0.24299,-4.5 2.28783,-4.5 1.25831,0 41.87081,4.27274 90.249998,9.49497 48.37919,5.22223 88.29967,9.49723 88.71217,9.5 0.4125,0.003 0.75,2.24378 0.75,4.98003 0,4.87913 -0.053,4.96558 -2.75,4.48607 -4.84117,-0.86071 -36.64813,-4.44764 -39.5,-4.45447 l -2.75,-0.007 v 18.35331 c 0,10.09432 0.28911,21.11932 0.64246,24.5 l 0.64245,6.14669 h 25.72106 c 14.14658,0 28.11205,-0.45344 31.03438,-1.00765 12.27132,-2.32721 21.14336,-8.82778 25.80289,-18.90587 5.03874,-10.89827 3.97016,-31.59666 -2.4527,-47.50889 -1.3148,-3.25732 -2.39054,-6.06068 -2.39054,-6.22967 0,-0.169 1.86104,-1.25671 4.13565,-2.41712 4.87898,-2.48908 4.70088,-2.66296 8.21717,8.02263 5.40519,16.42573 7.08111,33.19531 4.52192,45.24735 -3.28457,15.46807 -14.10262,26.61738 -30.59424,31.53104 -5.28447,1.5745 -15.02665,1.74864 -113.5305,2.02927 L 6.2847219,297.19018 Z M 152.28472,261.18338 v -24.93872 l -4.25,-0.57274 c -4.55031,-0.61321 -73.309278,-7.54981 -74.837398,-7.54981 -0.52915,0 -0.9126,12.18487 -0.9126,29 v 29 h 39.999998 40 z m 168,-54.62483 c -34.375,-1.82401 -63.02037,-3.34339 -63.65638,-3.37641 -0.6597,-0.0343 -0.92968,-0.92693 -0.62857,-2.07837 0.45981,-1.75832 1.12408,-1.95245 5.15638,-1.50695 2.54571,0.28125 33.65357,1.88385 69.12857,3.56132 35.475,1.67747 65.9625,3.27599 67.75,3.55227 1.94702,0.30093 3.25,1.08554 3.25,1.95701 0,2.01546 -6.42642,1.84815 -81,-2.10887 z"
     id="path812"
     inkscape:connector-curvature="0" />
</svg>
