<?xml version="1.0" encoding="UTF-8" standalone="no"?>
<svg
   xmlns:osb="http://www.openswatchbook.org/uri/2009/osb"
   xmlns:dc="http://purl.org/dc/elements/1.1/"
   xmlns:cc="http://creativecommons.org/ns#"
   xmlns:rdf="http://www.w3.org/1999/02/22-rdf-syntax-ns#"
   xmlns:svg="http://www.w3.org/2000/svg"
   xmlns="http://www.w3.org/2000/svg"
   xmlns:sodipodi="http://sodipodi.sourceforge.net/DTD/sodipodi-0.dtd"
   xmlns:inkscape="http://www.inkscape.org/namespaces/inkscape"
   version="1.1"
   id="svg2"
   width="500"
   height="500"
   viewBox="0 0 500 500"
   sodipodi:docname="w_rodel_lila.svg"
   inkscape:version="1.0.2 (e86c870879, 2021-01-15, custom)">
  <metadata
     id="metadata8">
    <rdf:RDF>
      <cc:Work
         rdf:about="">
        <dc:format>image/svg+xml</dc:format>
        <dc:type
           rdf:resource="http://purl.org/dc/dcmitype/StillImage" />
        <dc:title />
      </cc:Work>
    </rdf:RDF>
  </metadata>
  <defs
     id="defs6">
    <linearGradient
       id="linearGradient2276"
       osb:paint="gradient">
      <stop
         style="stop-color:#000000;stop-opacity:1;"
         offset="0"
         id="stop2272" />
      <stop
         style="stop-color:#000000;stop-opacity:0;"
         offset="1"
         id="stop2274" />
    </linearGradient>
  </defs>
  <sodipodi:namedview
     pagecolor="#ffffff"
     bordercolor="#666666"
     borderopacity="1"
     objecttolerance="10"
     gridtolerance="10"
     guidetolerance="10"
     inkscape:pageopacity="0"
     inkscape:pageshadow="2"
     inkscape:window-width="2560"
     inkscape:window-height="1360"
     id="namedview4"
     showgrid="false"
     inkscape:showpageshadow="false"
     inkscape:zoom="1"
     inkscape:cx="94.5"
     inkscape:cy="250"
     inkscape:window-x="-11"
     inkscape:window-y="-11"
     inkscape:window-maximized="1"
     inkscape:current-layer="svg2"
     inkscape:document-rotation="0" />
  <path
     style="fill:#ff00ff;fill-opacity:1;stroke:none;stroke-opacity:1"
     d="m 28.318055,322.38982 v -12.01794 h 50 49.999995 v -58 -58 h -32.499995 -32.5 v -11 -11 h 160.999995 161 v 11 11 h -40 -40 v 58.08486 58.08485 l 46.75,-0.43665 c 51.95618,-0.48528 51.30273,-0.41039 66.75,-7.64941 34.07335,-15.96772 57.60239,-61.41942 60.35202,-116.58365 l 0.64798,-13 7.90503,-0.29486 7.90503,-0.29485 -0.58602,16.29485 c -1.897,52.74801 -19.44334,96.91757 -48.51015,122.11499 -11.88668,10.30433 -23.73821,16.69058 -39.71389,21.40001 -5.62902,1.65937 -17.5157,1.78564 -192.25,2.04223 l -186.249995,0.27351 z m 259.758125,-70.27456 0.25812,-57.75662 -71.75812,0.25662 -71.75813,0.25662 -0.25966,56.5 c -0.14281,31.075 -0.0433,57.0655 0.22118,57.75667 0.38108,0.99598 15.26726,1.20343 71.75966,1 l 71.27882,-0.25667 z"
     id="path812"
     inkscape:connector-curvature="0" />
</svg>
