<?xml version="1.0" encoding="UTF-8" standalone="no"?>
<svg width="580" height="580" version="1.0" xmlns="http://www.w3.org/2000/svg">
 <metadata id="metadata3003"/>
 <path id="path816" d="m 276,32 v 121.01758 l -39,0.38281 c -52,0 -93,40 -93,90 v 155 c 0,50 41,90 93,89 h 102 c 52,0 93,-40 93,-90 v -155 c 0,-50 -41,-90 -93,-90 l -39,0.38281 V 32 Z" opacity="0.8" fill="none" stroke="#ffffff" vector-effect="none" stroke-linejoin="round" stroke-width="64"/>
 <path d="m 276,32 v 121.01758 l -39,0.38281 c -52,0 -93,40 -93,90 v 155 c 0,50 41,90 93,89 h 102 c 52,0 93,-40 93,-90 v -155 c 0,-50 -41,-90 -93,-90 l -39,0.38281 V 32 Z" id="rect3195" fill="#20a0a0"/>
 <path d="m 339,176.40039 c 38,0 69,30.8 69,69 v 54 c 0,38 -30.8,69 -69,69 H 237 c -38,0 -69,-30.8 -69,-69 v -54 c 0,-38 30.8,-69 69,-69 z" id="rect3199" opacity="0.7" fill="#ffffff"/>
</svg>
